<?xml version="1.0" encoding="utf-8"?>
<!-- Generator: Adobe Illustrator 26.3.1, SVG Export Plug-In . SVG Version: 6.00 Build 0)  -->
<svg version="1.1" id="Layer_1" xmlns="http://www.w3.org/2000/svg" xmlns:xlink="http://www.w3.org/1999/xlink" x="0px" y="0px"
	 viewBox="0 0 191.53 67.97" enable-background="new 0 0 191.53 67.97" xml:space="preserve">
<path d="M153.92,67.48c-3.44,0.16-6.78-1.21-9.11-3.74c-2.11-2.66-2.92-6.13-2.23-9.45c0.3-1.73,1.83-2.98,3.59-2.91h1
	c1.73-0.01,3.2,1.28,3.41,3c0.31,3.32,2.86,5.46,6.49,5.46c4.88,0,10.33-4,12.15-8.83l0.2-0.55c0.07-0.17,0.03-0.37-0.1-0.51
	c-0.1-0.1-0.23-0.16-0.37-0.16h-0.15c-0.64,0.22-1.32,0.34-2,0.35c-1.56,0-3.01-0.78-3.86-2.08c-2.13-3-2.18-8.48-0.13-14.26
	c0,0,0,0,0-0.05c0.7-1.62,2.16-5.39,1.2-6.86c-0.28-0.42-0.76-0.66-1.26-0.64c-2.57,0-4.51,5.07-5.24,7.3v0.07
	c-3.34,8.8-11,16.52-16.3,16.52c-1.55,0.01-2.99-0.77-3.84-2.06c-2.12-3-2.2-8.39-0.2-14.11c0.36-0.9,2.14-5.56,1-7.24
	c-0.28-0.42-0.76-0.67-1.27-0.65c-2.56,0-3.23,2-4.34,5.21c-0.19,0.57-0.4,1.17-0.63,1.83l-5.44,14.93
	c-0.49,1.36-1.78,2.27-3.23,2.27h-0.21c-1.91-0.01-3.44-1.56-3.43-3.47c0-0.39,0.07-0.78,0.2-1.15l4.46-12.24
	c0.29-0.8,0.56-1.51,0.81-2.16c0.89-2.3,1.43-3.69,0.84-4.55c-0.43-0.5-1.09-0.75-1.74-0.67c-2.91,0-4.91,6.34-5.12,7.06
	l-5.54,14.97c-0.49,1.36-1.78,2.27-3.23,2.27h-0.22c-1.91-0.01-3.45-1.55-3.44-3.46c0-0.39,0.07-0.78,0.2-1.15l4.35-12
	c1.4-3.8,1.75-6,1.1-6.94c-0.22-0.33-0.6-0.52-1-0.51c-2.86,0-5.91,6.94-6.25,7.73c-4.2,9.51-10.51,16.19-15.3,16.19
	c-1.53,0.02-2.97-0.73-3.83-2c-2.1-2.94-2.2-8.29-0.27-14c0.01-0.04,0.01-0.09,0-0.13c1.22-3.36,2-5.64,1.19-6.77
	c-0.28-0.41-0.75-0.65-1.25-0.64h-0.19c-2.48,0-3.19,2-4.37,5.35l-0.11,0.32c-0.01,0.03-0.01,0.05,0,0.08l-5.38,14.79
	c-0.49,1.36-1.78,2.27-3.23,2.27h-0.21c-1.9,0-3.44-1.54-3.44-3.44c0-0.4,0.07-0.8,0.21-1.18l3.83-10.52c0.41-1,2.41-6.19,1.38-7.72
	c-0.22-0.33-0.6-0.53-1-0.52c-2.59,0-5.19,5.17-5.92,6.76l-0.12,0.23c-6,10.94-11.4,16.73-15.48,16.73
	c-1.39,0.02-2.71-0.62-3.57-1.71c-1.32-1.62-3.62-2.07-5.45-1.06c-3.18,1.8-6.76,2.78-10.42,2.87c-4.13,0-7.52-1.52-9.53-4.28
	c-2.17-3-2.59-7.05-1.17-11.48c0.01-0.06,0.01-0.12,0-0.18l6.25-17.17c0.26-0.72,0.52-1.38,0.75-2c0.89-2.31,1.43-3.7,0.84-4.56
	c-0.44-0.48-1.08-0.72-1.72-0.64c-2.59,0-5.52,5.55-6.36,7.24c-0.05,0.1-0.09,0.2-0.13,0.3c-3.61,9.23-10.07,16.18-15,16.18
	c-1.46,0-2.84-0.69-3.7-1.87c-1.95-2.52-2.33-7-1-12.09C1.69,18.03,7.27,9.26,7.95,8.61c0.08-0.05,0.17-0.07,0.26-0.07
	c0.37,0,0.9,0.27,0.9,0.7c-0.77,4-1.77,7.95-3,11.84c-0.63,1.48-0.52,3.16,0.31,4.54c0.48,0.69,1.27,1.11,2.11,1.12
	c2.77,0,6.7-8.58,7.46-10.3c3.52-9.09,10-15.94,15-15.94c1.54,0,2.98,0.77,3.83,2.05c2.1,2.94,2.21,8.29,0.27,14l-5.85,16.63
	c-0.84,1.95-0.67,4.2,0.46,6c1.41,1.76,3.58,2.71,5.83,2.56c5.24-0.1,9.91-3.34,11.84-8.22L58.53,2.94c0.5-1.36,1.79-2.26,3.23-2.26
	h0.22c1.9,0,3.44,1.55,3.44,3.44c0,0.4-0.07,0.79-0.21,1.17L55.03,33.17c-0.31,0.87-0.61,1.65-0.88,2.34
	c-0.89,2.3-1.43,3.68-0.84,4.54c0.44,0.5,1.09,0.75,1.75,0.67c2.76,0,7.08-8.55,7.92-10.26C66.92,21.9,71.88,17,76.58,17
	c1.18-0.02,2.31,0.42,3.16,1.24c0.78,0.74,1.82,1.14,2.89,1.13c0.82,0,1.63-0.22,2.35-0.62c1.25-0.76,2.67-1.19,4.13-1.26
	c1.53-0.02,2.97,0.74,3.83,2c2.1,2.93,2.2,8.28,0.27,14c-0.01,0.04-0.01,0.08,0,0.12c-0.65,1.84-2,5.89-1.11,7.08
	c0.19,0.26,0.49,0.42,0.81,0.42c0.2,0,0.39-0.04,0.57-0.12c3.4-1.38,6.4-7.31,6.53-7.57c4.4-9.9,10.23-16.29,14.86-16.29
	c1.03-0.01,2.02,0.35,2.81,1c0.85,0.68,1.91,1.05,3,1.05c0.83,0,1.65-0.22,2.37-0.65c1.38-0.91,2.97-1.45,4.62-1.55
	c1.15-0.02,2.27,0.42,3.1,1.22c0.75,0.7,1.74,1.09,2.76,1.1c0.82,0,1.63-0.22,2.34-0.64c1.37-0.88,2.94-1.4,4.56-1.49
	c1.59,0,3.07,0.81,3.94,2.15c2.16,3.05,2.24,8.49,0.22,14.2l0,0c-1.47,2.73-3,6.23-2.22,7.59c0.24,0.4,0.69,0.63,1.15,0.6
	c2.88,0,5.94-7,6.34-7.94l0.06-0.1c3.34-8.81,11-16.53,16.3-16.53c1.56,0,3.01,0.79,3.85,2.1c2.12,3,2.2,8.38,0.21,14.11
	c0,0.09-0.07,0.19-0.11,0.28c-0.67,1.55-2.13,5.33-1.17,6.8c0.28,0.41,0.75,0.65,1.25,0.63c2.06,0,2.95-1.21,3.79-3.31l1.31-3.77
	l0.18-0.52c1.75-4.94,3.14-8.85,6.34-11.86c0.07,0,2.21-1.31,3.49-2.08l1.45-0.87c0.7-0.49,1.53-0.75,2.39-0.77
	c0.88,0,1.83,0.36,1.83,1.36c0,1.61-1.56,3.44-4.78,5.58c-2.15,1.44-4.18,8.21-4.2,8.28s-4.83,16.33-5.23,17.71v0.06
	C173.32,60.03,163.06,67.48,153.92,67.48z"/>
<path d="M31.02,1c1.38-0.01,2.67,0.68,3.43,1.84c2,2.81,2.08,8,0.2,13.5l-5.88,16.67c0,0.02,0,0.05,0,0.07
	c-0.87,2.09-0.67,4.48,0.54,6.39c1.49,1.89,3.82,2.93,6.22,2.77c5.42-0.11,10.25-3.45,12.28-8.48v-0.07L58.97,3.11
	c0.43-1.15,1.53-1.92,2.76-1.94h0.22c1.66,0.04,2.97,1.41,2.93,3.07c-0.01,0.32-0.06,0.63-0.17,0.93L54.53,33.01
	c-0.31,0.86-0.61,1.63-0.88,2.32c-0.95,2.45-1.52,3.93-0.78,5c0.53,0.63,1.34,0.97,2.16,0.89c2.9,0,6.82-7.37,8.38-10.56
	c3.79-8.24,8.71-13.16,13.14-13.16c1.05-0.02,2.06,0.39,2.81,1.13c0.87,0.83,2.04,1.28,3.24,1.27c0.92,0.01,1.82-0.22,2.62-0.66
	c1.18-0.71,2.51-1.13,3.89-1.2c1.38-0.02,2.67,0.66,3.42,1.82c2,2.8,2.09,8,0.2,13.51c0,0.05,0,0.11,0,0.16
	c-1.4,3.95-1.75,6.46-1,7.48c0.27,0.4,0.73,0.64,1.22,0.64c0.26,0,0.51-0.06,0.75-0.16c3.58-1.45,6.67-7.54,6.81-7.84
	c4.25-9.56,10-16,14.4-16c0.91-0.01,1.79,0.3,2.5,0.87c0.93,0.75,2.09,1.16,3.29,1.16c0.93,0,1.84-0.25,2.63-0.73
	c1.3-0.86,2.8-1.37,4.36-1.47c1.02-0.01,2.01,0.38,2.76,1.08c0.84,0.78,1.94,1.22,3.08,1.24c0.91,0,1.81-0.24,2.59-0.71
	c1.29-0.84,2.77-1.33,4.31-1.42c1.43,0,2.77,0.73,3.54,1.94c2.06,2.91,2.12,8.16,0.16,13.71c-3.32,6.19-2.48,7.61-2.2,8.07
	c0.34,0.56,0.95,0.88,1.6,0.85c3.2,0,6.28-7,6.78-8.2c0.03-0.05,0.06-0.11,0.08-0.17c3.53-9.27,11.27-16.2,15.84-16.2
	c1.39-0.01,2.69,0.69,3.44,1.86c2,2.85,2.07,8.08,0.14,13.66c-0.03,0.08-0.06,0.16-0.1,0.24c-1.07,2.47-2.13,5.74-1.12,7.27
	c0.37,0.56,1,0.89,1.67,0.86c2.58,0,3.51-1.79,4.27-3.67l1.29-3.74l0.19-0.52c1.71-4.85,3.07-8.68,6.13-11.59l3.59-2.15l1.36-0.82
	c0.62-0.43,1.35-0.67,2.11-0.69c0.31,0,1.33,0.06,1.33,0.86c0,1.41-1.53,3.15-4.55,5.17c-2.31,1.53-4.32,8.26-4.41,8.55l-5.22,17.67
	v0.06c-3.4,9-13.45,16.29-22.4,16.29c-3.29,0.16-6.49-1.14-8.73-3.56c-2.01-2.56-2.79-5.87-2.12-9.05c0.26-1.49,1.59-2.56,3.1-2.49
	h1c1.49-0.01,2.74,1.1,2.91,2.58c0.34,3.6,3.08,5.92,7,5.92c5.13,0,10.66-4,12.6-9.09v-0.07l0.19-0.55c0.12-0.35,0.04-0.73-0.21-1
	c-0.19-0.2-0.45-0.31-0.73-0.31c-0.1-0.02-0.2-0.02-0.3,0c-0.61,0.2-1.25,0.31-1.89,0.32c-1.4,0.02-2.71-0.69-3.45-1.87
	c-2-2.88-2.06-8.17-0.07-13.81l0,0c1.09-2.51,2.15-5.79,1.16-7.31c-0.37-0.56-1.01-0.89-1.68-0.87c-2.78,0-4.75,4.7-5.7,7.59
	c0,0,0,0.07,0,0.11c-3.53,9.27-11.27,16.19-15.84,16.19c-1.39,0.01-2.68-0.69-3.44-1.85c-2-2.85-2.07-8.08-0.15-13.62
	c0.54-1.34,2.21-5.88,1-7.72c-0.38-0.55-1.01-0.88-1.68-0.87c-2.91,0-3.67,2.21-4.81,5.55c-0.19,0.56-0.4,1.17-0.63,1.82l0,0
	l-5.54,14.92c-0.43,1.15-1.53,1.92-2.76,1.94h-0.21c-1.62,0.01-2.95-1.3-2.96-2.92c0-0.37,0.06-0.73,0.2-1.08l4.46-12.24
	c0.28-0.79,0.56-1.51,0.81-2.15c1-2.45,1.52-3.94,0.78-5c-0.53-0.63-1.33-0.96-2.15-0.89c-3.18,0-5.2,6.09-5.59,7.39l-5.43,14.95
	c-0.43,1.15-1.53,1.92-2.76,1.94h-0.22c-1.62,0-2.94-1.31-2.95-2.93c0-0.34,0.06-0.68,0.18-1.01l4.31-11.91v-0.1
	c1.5-4.08,1.81-6.29,1-7.4c-0.32-0.46-0.85-0.73-1.41-0.72c-3,0-5.9,6.15-6.7,8c-4.09,9.2-10.35,15.87-14.88,15.87
	c-1.38,0.02-2.67-0.67-3.42-1.83c-2-2.81-2.09-8-0.2-13.51c0-0.06,0-0.11,0-0.16c1.29-3.58,2-5.86,1.12-7.18
	c-0.38-0.54-0.99-0.86-1.65-0.86H85.3c-2.84,0-3.63,2.27-4.84,5.69l-0.11,0.31v0.11l-5.4,14.82c-0.43,1.15-1.53,1.92-2.76,1.94
	h-0.21c-0.96,0-1.86-0.47-2.41-1.26c-0.56-0.78-0.69-1.79-0.35-2.69l3.91-10.48c0.77-1.92,2.45-6.55,1.33-8.2
	c-0.31-0.47-0.84-0.75-1.4-0.74c-2.81,0-5.4,4.93-6.38,7c-0.03,0.07-0.06,0.14-0.1,0.2C59.06,46.5,54.25,49.36,51.53,49.36
	c-1.24,0.01-2.42-0.55-3.19-1.53c-0.92-1.13-2.3-1.78-3.76-1.79c-0.81,0-1.6,0.21-2.31,0.6c-3.12,1.76-6.61,2.72-10.19,2.81
	c-4,0-7.21-1.45-9.13-4.08c-2.07-2.84-2.46-6.76-1.1-11c0.03-0.07,0.04-0.14,0.05-0.22l6.22-17.1c0.26-0.72,0.52-1.38,0.75-2
	c0.95-2.46,1.52-3.94,0.78-5c-0.52-0.63-1.31-0.97-2.12-0.91c-2.7,0-5.42,4.71-6.81,7.52c-0.06,0.11-0.11,0.22-0.15,0.34
	C17.1,25.89,10.7,32.86,6,32.86c-1.3,0.03-2.54-0.57-3.32-1.62c-1.83-2.42-2.15-6.89-0.94-11.71c0.31-1.21,5.56-9.47,6.41-10.49
	c0.19,0,0.38,0.15,0.38,0.2c-0.76,3.95-1.75,7.85-2.95,11.68c-0.68,1.63-0.54,3.49,0.38,5c0.59,0.84,1.55,1.33,2.57,1.32
	c2.92,0,6.51-7.41,7.93-10.64C19.9,7.71,26.16,1,31.02,1 M31.02,0c-5.29,0-11.91,7-15.49,16.24c0,0-4.41,10-7,10c-1.82,0-3-2.12-2-5
	c1.24-3.94,2.24-7.94,3-12c-0.08-0.71-0.69-1.23-1.4-1.2C7.91,8.03,7.7,8.1,7.53,8.24c-0.58,0.51-6.36,9.52-6.76,11
	c-2.14,8.26,0.32,14.58,5.21,14.58c5.27,0,11.91-7.3,15.5-16.5c0.03-0.09,0.07-0.17,0.12-0.25c0.48-1,3.53-7,5.91-7
	c2.62,0,1.32,2.05-0.32,6.53l0,0l-6.32,17.43l0,0c-2.91,9.13,1.94,16.42,11.18,16.42c3.74-0.08,7.4-1.09,10.66-2.93
	c1.64-0.89,3.69-0.47,4.84,1c0.97,1.19,2.44,1.87,3.98,1.84c5.27,0,11.22-8.48,15.92-17c0.05-0.08,0.09-0.17,0.13-0.26
	c0.43-0.92,3.1-6.47,5.47-6.47c2.19,0-0.86,7.56-0.86,7.56l0,0l-3.82,10.54c-0.75,2.04,0.31,4.31,2.35,5.05
	c0.43,0.16,0.89,0.24,1.35,0.24h0.21c1.65,0,3.13-1.04,3.7-2.59l5.44-14.94l0,0c1.23-3.49,1.81-5.34,4-5.34h0.17
	c1.94,0.09,0.94,3.09-0.44,6.88l0,0c-3.16,9.26-0.73,16.67,4.57,16.67s11.81-7.46,15.81-16.46c0,0,3.17-7.43,5.79-7.43
	c2,0-0.2,5.78-0.61,6.88L106.4,45.6c-0.74,2.05,0.32,4.31,2.37,5.05c0.43,0.16,0.89,0.24,1.34,0.23h0.22
	c1.65-0.02,3.12-1.05,3.7-2.6l5.44-14.93c0,0,2-6.71,4.64-6.71s1.29,2.1-0.38,6.71l0,0l-4.46,12.24c-0.75,2.04,0.31,4.31,2.35,5.05
	c0.43,0.16,0.89,0.24,1.35,0.24h0.21c1.66,0,3.14-1.04,3.7-2.6l5.44-14.93l0,0c1.58-4.4,1.92-6.71,4.5-6.71s-0.2,7.22-0.2,7.22
	c-3.25,9.34-0.82,16.84,4.51,16.84s13.22-7.5,16.77-16.84l0,0c0.05-0.12,2.18-7.05,4.8-7.05s-0.42,6.82-0.44,6.88l0,0
	c-3.34,9.42-0.91,17,4.46,17c0.74-0.01,1.48-0.14,2.19-0.37l-0.19,0.55l0,0c-1.76,4.7-7,8.5-11.68,8.5c-3.47,0-5.71-2-6-5
	c-0.22-1.99-1.9-3.5-3.91-3.49h-1c-2-0.05-3.73,1.38-4.05,3.36c-1.27,7.85,3.52,13.77,11.84,13.77c9.4,0,19.79-7.56,23.34-16.93l0,0
	l5.27-17.84c0.2-0.68,2.14-6.76,4-8c3-2,5-4,5-6c0-1.2-1-1.86-2.33-1.86c-0.96,0.02-1.88,0.32-2.67,0.86l-5,3
	c-3.41,3.2-4.82,7.4-6.65,12.58l-1.3,3.74c-0.8,2-1.57,3-3.32,3c-2.44,0,0-5.77,0.37-6.74l0.12-0.31
	c3.25-9.33,0.81-16.84-4.52-16.84s-13.22,7.51-16.77,16.85l0,0c0,0.12-3.3,7.72-5.92,7.72s1.54-7.49,1.56-7.55l0,0
	c3.34-9.42,0.73-17-4.63-17c-1.72,0.09-3.39,0.62-4.84,1.55c-0.63,0.37-1.35,0.57-2.08,0.57c-0.93,0-1.82-0.36-2.49-1
	c-0.93-0.88-2.16-1.37-3.44-1.35c-1.74,0.1-3.42,0.66-4.87,1.62c-0.64,0.38-1.37,0.58-2.12,0.58c-0.97,0-1.91-0.33-2.66-0.94
	c-0.89-0.71-1.99-1.1-3.13-1.09c-5.31,0.04-11.31,7.61-15.31,16.61c0,0-3,6-6.27,7.32c-0.12,0.05-0.25,0.09-0.38,0.09
	c-1.7,0,0.76-6.8,0.82-7l0,0c3.16-9.26,0.73-16.67-4.57-16.67c-1.54,0.07-3.05,0.53-4.37,1.33c-0.65,0.36-1.37,0.55-2.11,0.55
	c-0.94,0.01-1.86-0.35-2.54-1c-0.94-0.92-2.2-1.43-3.51-1.41c-5.3,0-10.39,5.81-14,13.74c0,0-4.89,10-7.47,10s-1.26-2.14,0.44-6.87
	L65.65,5.46c0.75-2.04-0.31-4.31-2.35-5.05c-0.43-0.16-0.89-0.24-1.35-0.24h-0.22c-1.65,0.02-3.12,1.05-3.7,2.6L46.9,33.35l0,0
	c-1.86,4.67-6.34,7.78-11.37,7.89c-4.72,0-7.48-3.19-5.81-7.89l0,0l5.87-16.68C38.75,7.42,36.32,0,31.02,0z"/>
<path fill="none" stroke="#000000" stroke-miterlimit="10" d="M-5.97,41.74"/>
<path fill-rule="evenodd" clip-rule="evenodd" d="M-5.97,41.74"/>
<path fill="none" stroke="#000000" stroke-miterlimit="10" d="M-5.47,26.74"/>
<path fill-rule="evenodd" clip-rule="evenodd" d="M-5.47,26.74"/>
</svg>
